<?xml version="1.0" encoding="utf-8"?>
<!-- Generator: Adobe Illustrator 16.0.0, SVG Export Plug-In . SVG Version: 6.00 Build 0)  -->
<!DOCTYPE svg PUBLIC "-//W3C//DTD SVG 1.1//EN" "http://www.w3.org/Graphics/SVG/1.1/DTD/svg11.dtd">
<svg version="1.1" id="Calque_1" xmlns="http://www.w3.org/2000/svg" xmlns:xlink="http://www.w3.org/1999/xlink" x="0px" y="0px"
	 width="25px" height="25px" viewBox="0 0 25 25" enable-background="new 0 0 25 25" xml:space="preserve">
<path fill="#C1272D" d="M22.064,17.863L16.698,12.5l5.366-5.366c0.126-0.129,0.126-0.337,0-0.466l-3.731-3.732
	c-0.129-0.124-0.346-0.124-0.47,0l-5.362,5.366L7.135,2.937c-0.129-0.129-0.338-0.129-0.467,0L2.937,6.668
	c-0.129,0.128-0.129,0.337,0,0.466L8.302,12.5l-5.365,5.363C2.875,17.925,2.84,18.01,2.84,18.098s0.035,0.17,0.097,0.234
	l3.731,3.731c0.129,0.129,0.338,0.129,0.467,0l5.366-5.365l5.362,5.365c0.063,0.063,0.147,0.096,0.234,0.096
	c0.088,0,0.173-0.033,0.235-0.096l3.731-3.731c0.062-0.062,0.095-0.146,0.095-0.234S22.126,17.925,22.064,17.863z"/>
</svg>
